HIERARCHY
ROOT hip
{
  OFFSET -142.492 82.4629 9.81461
  CHANNELS 6 Xposition Yposition Zposition Zrotation Xrotation Yrotation
  JOINT abdomen
  {
    OFFSET 0 20.6881 -0.73152
    CHANNELS 3 Zrotation Xrotation Yrotation
    JOINT chest
    {
      OFFSET 0 11.7043 -0.48768
      CHANNELS 3 Zrotation Xrotation Yrotation
      JOINT neck
      {
        OFFSET 0 22.1894 -2.19456
        CHANNELS 3 Zrotation Xrotation Yrotation
        JOINT head
        {
          OFFSET -0.24384 7.07133 1.2192
          CHANNELS 3 Zrotation Xrotation Yrotation
          JOINT leftEye
          {
            OFFSET 4.14528 8.04674 8.04672
            CHANNELS 3 Zrotation Xrotation Yrotation
            End Site
            {
              OFFSET 1 0 0
            }
          }
          JOINT rightEye
          {
            OFFSET -3.6576 8.04674 8.04672
            CHANNELS 3 Zrotation Xrotation Yrotation
            End Site
            {
              OFFSET 1 0 0
            }
          }
        }
      }
      JOINT rCollar
      {
        OFFSET -2.68224 19.2634 -4.8768
        CHANNELS 3 Zrotation Xrotation Yrotation
        JOINT rShldr
        {
          OFFSET -8.77824 -1.95073 1.46304
          CHANNELS 3 Zrotation Xrotation Yrotation
          JOINT rForeArm
          {
            OFFSET -28.1742 -1.7115 0.48768
            CHANNELS 3 Zrotation Xrotation Yrotation
            JOINT rHand
            {
              OFFSET -22.5879 0.773209 7.07136
              CHANNELS 3 Zrotation Xrotation Yrotation
              JOINT rThumb1
              {
                OFFSET -1.2192 -0.487915 3.41376
                CHANNELS 3 Zrotation Xrotation Yrotation
                JOINT rThumb2
                {
                  OFFSET -3.37035 -0.52449 3.41376
                  CHANNELS 3 Zrotation Xrotation Yrotation
                  End Site
                  {
                    OFFSET -1.78271 -1.18214 1.43049
                  }
                }
              }
              JOINT rIndex1
              {
                OFFSET -7.75947 0.938293 5.60832
                CHANNELS 3 Zrotation Xrotation Yrotation
                JOINT rIndex2
                {
                  OFFSET -2.54057 -0.884171 1.56538
                  CHANNELS 3 Zrotation Xrotation Yrotation
                  End Site
                  {
                    OFFSET -1.62519 -0.234802 1.16502
                  }
                }
              }
              JOINT rMid1
              {
                OFFSET -8.24714 1.18213 3.41376
                CHANNELS 3 Zrotation Xrotation Yrotation
                JOINT rMid2
                {
                  OFFSET -3.10165 -0.590103 1.0647
                  CHANNELS 3 Zrotation Xrotation Yrotation
                  End Site
                  {
                    OFFSET -2.48547 -0.328903 0.83742
                  }
                }
              }
              JOINT rRing1
              {
                OFFSET -8.82822 0.546677 1.51678
                CHANNELS 3 Zrotation Xrotation Yrotation
                JOINT rRing2
                {
                  OFFSET -2.60934 -0.819778 -0.0198488
                  CHANNELS 3 Zrotation Xrotation Yrotation
                  End Site
                  {
                    OFFSET -2.33842 -0.294052 0.168128
                  }
                }
              }
              JOINT rPinky1
              {
                OFFSET -8.27202 -0.0477905 -0.4584
                CHANNELS 3 Zrotation Xrotation Yrotation
                JOINT rPinky2
                {
                  OFFSET -1.82734 -0.647385 -0.700984
                  CHANNELS 3 Zrotation Xrotation Yrotation
                  End Site
                  {
                    OFFSET -1.69225 -0.51767 -0.607171
                  }
                }
              }
            }
          }
        }
      }
      JOINT lCollar
      {
        OFFSET 2.68224 19.2634 -4.8768
        CHANNELS 3 Zrotation Xrotation Yrotation
        JOINT lShldr
        {
          OFFSET 8.77824 -1.95073 1.46304
          CHANNELS 3 Zrotation Xrotation Yrotation
          JOINT lForeArm
          {
            OFFSET 28.1742 -1.7115 0.48768
            CHANNELS 3 Zrotation Xrotation Yrotation
            JOINT lHand
            {
              OFFSET 22.5879 0.773209 7.07136
              CHANNELS 3 Zrotation Xrotation Yrotation
              JOINT lThumb1
              {
                OFFSET 1.2192 -0.487915 3.41376
                CHANNELS 3 Zrotation Xrotation Yrotation
                JOINT lThumb2
                {
                  OFFSET 3.37035 -0.52449 3.41376
                  CHANNELS 3 Zrotation Xrotation Yrotation
                  End Site
                  {
                    OFFSET 1.78271 -1.18214 1.43049
                  }
                }
              }
              JOINT lIndex1
              {
                OFFSET 7.75947 0.938293 5.60832
                CHANNELS 3 Zrotation Xrotation Yrotation
                JOINT lIndex2
                {
                  OFFSET 2.54057 -0.884171 1.56538
                  CHANNELS 3 Zrotation Xrotation Yrotation
                  End Site
                  {
                    OFFSET 1.62519 -0.234802 1.16502
                  }
                }
              }
              JOINT lMid1
              {
                OFFSET 8.24714 1.18213 3.41376
                CHANNELS 3 Zrotation Xrotation Yrotation
                JOINT lMid2
                {
                  OFFSET 3.10165 -0.590103 1.0647
                  CHANNELS 3 Zrotation Xrotation Yrotation
                  End Site
                  {
                    OFFSET 2.48547 -0.328903 0.83742
                  }
                }
              }
              JOINT lRing1
              {
                OFFSET 8.82822 0.546677 1.51678
                CHANNELS 3 Zrotation Xrotation Yrotation
                JOINT lRing2
                {
                  OFFSET 2.60934 -0.819778 -0.0198488
                  CHANNELS 3 Zrotation Xrotation Yrotation
                  End Site
                  {
                    OFFSET 2.33842 -0.294052 0.168128
                  }
                }
              }
              JOINT lPinky1
              {
                OFFSET 8.27202 -0.0477905 -0.4584
                CHANNELS 3 Zrotation Xrotation Yrotation
                JOINT lPinky2
                {
                  OFFSET 1.82734 -0.647385 -0.700984
                  CHANNELS 3 Zrotation Xrotation Yrotation
                  End Site
                  {
                    OFFSET 1.69225 -0.51767 -0.607171
                  }
                }
              }
            }
          }
        }
      }
    }
  }
  JOINT rButtock
  {
    OFFSET -8.77824 4.35084 1.2192
    CHANNELS 3 Zrotation Xrotation Yrotation
    JOINT rThigh
    {
      OFFSET 0 -1.70687 -2.19456
      CHANNELS 3 Zrotation Xrotation Yrotation
      JOINT rShin
      {
        OFFSET 0 -36.8199 0.73152
        CHANNELS 3 Zrotation Xrotation Yrotation
        JOINT rFoot
        {
          OFFSET 0.73152 -45.1104 -5.12064
          CHANNELS 3 Zrotation Xrotation Yrotation
          End Site
          {
            OFFSET -1.1221 -3.69964 12.103
          }
        }
      }
    }
  }
  JOINT lButtock
  {
    OFFSET 8.77824 4.35084 1.2192
    CHANNELS 3 Zrotation Xrotation Yrotation
    JOINT lThigh
    {
      OFFSET 0 -1.70687 -2.19456
      CHANNELS 3 Zrotation Xrotation Yrotation
      JOINT lShin
      {
        OFFSET 0 -36.8199 0.73152
        CHANNELS 3 Zrotation Xrotation Yrotation
        JOINT lFoot
        {
          OFFSET -0.73152 -45.1104 -5.12064
          CHANNELS 3 Zrotation Xrotation Yrotation
          End Site
          {
            OFFSET 1.1221 -3.69964 12.103
          }
        }
      }
    }
  }
}
MOTION
Frames:	8
Frame Time:	0.00833333
8.64463 84.6719 -2.58556 3.80664 11.1142 -73.3988 24.5676 -0.004359 7.11291 4.2281 -5.54248 1.84253 -6.56558 -1.22485 -6.39148 0.471196 -9.97408 -10.7802 -0 0 0 -0 0 0 3.59609e-013 -5.40465e-015 4.61703e-013 83.5012 -10.0442 59.7725 -19.5152 -12.4166 37.5113 -0.151897 -11.045 -1.57198 -7.74662e-009 5.19008e-009 -1.24674e-009 -1.33635e-008 8.99727e-009 -2.22289e-009 -7.74661e-009 5.19008e-009 -1.24675e-009 7.73091 5.47488 0.417314 -7.74662e-009 5.19008e-009 -1.24674e-009 2.90554 0.965183 0.102902 -7.74661e-009 5.19008e-009 -1.24674e-009 10.2786 0.731801 0.0259123 -7.74662e-009 5.19008e-009 -1.24673e-009 2.22167 -0.733487 -0.20892 3.59416e-013 -5.4175e-015 4.614e-013 -62.1598 23.1317 -21.529 19.6121 -12.532 -37.745 0.119275 9.8007 -1.39113 -8.42934e-009 8.70527e-009 -4.48193e-009 -1.46084e-008 1.51615e-008 -7.67441e-009 -8.42936e-009 8.70528e-009 -4.48191e-009 -7.73091 5.47488 -0.417314 -8.42934e-009 8.70527e-009 -4.48193e-009 -2.90554 0.965183 -0.102902 -8.42935e-009 8.70527e-009 -4.48193e-009 -10.2786 0.731801 -0.0259123 -8.42934e-009 8.70528e-009 -4.48193e-009 -2.22167 -0.733487 0.20892 -2.03217e-016 0 -3.88251e-019 7.55936 -15.9455 -0.595682 -0.0600086 20.3483 0.320713 -2.82137 -4.04088 -17.553 2.03217e-016 0 3.88251e-019 11.856 -33.7204 -4.31582 0.567457 49.2222 -0.999897 -0.0627508 0.684812 -4.89243 
7.84635 84.7107 -2.55272 3.83952 11.2459 -73.1947 24.4277 -0.00927122 7.45958 4.02643 -5.52165 1.93576 -6.72801 -1.19892 -6.59525 0.813441 -10.1905 -11.1023 -0 0 0 -0 0 0 3.30891e-013 -4.32556e-013 6.3954e-013 82.97 -9.86065 59.7402 -19.1107 -11.9328 36.5625 -0.16496 -11.4986 -1.6383 -9.57503e-009 5.94132e-009 -9.07514e-010 -1.65228e-008 1.02967e-008 -1.64729e-009 -9.57503e-009 5.94132e-009 -9.07524e-010 7.73091 5.47488 0.417314 -9.57503e-009 5.94132e-009 -9.07517e-010 2.90554 0.965183 0.102902 -9.57503e-009 5.94132e-009 -9.07513e-010 10.2786 0.731801 0.0259123 -9.57504e-009 5.94132e-009 -9.07508e-010 2.22167 -0.733487 -0.20892 3.30686e-013 -4.32556e-013 6.39242e-013 -62.4464 23.4534 -20.7871 19.8094 -12.7739 -38.2192 0.118901 9.78547 -1.38892 -9.10154e-009 9.56965e-009 -5.10958e-009 -1.57751e-008 1.66678e-008 -8.75332e-009 -9.10155e-009 9.56966e-009 -5.10957e-009 -7.73091 5.47488 -0.417314 -9.10154e-009 9.56965e-009 -5.10958e-009 -2.90554 0.965183 -0.102902 -9.10155e-009 9.56965e-009 -5.10959e-009 -10.2786 0.731801 -0.0259123 -9.10153e-009 9.56966e-009 -5.10959e-009 -2.22167 -0.733487 0.20892 -2.03217e-016 0 -3.88251e-019 7.80824 -15.3634 -0.554557 -0.0589927 20.1333 0.32728 -2.8982 -4.25309 -17.6232 2.03217e-016 0 3.88251e-019 12.0231 -34.2077 -4.30409 0.534586 48.1709 -0.95826 -0.0302231 0.224751 -4.08419 
7.04691 84.7439 -2.51061 3.88261 11.3596 -73.0007 24.2546 -0.0191782 7.78744 3.82984 -5.49041 2.0237 -6.88132 -1.17054 -6.78377 1.14755 -10.4122 -11.397 -0 0 0 -0 0 0 2.44175e-013 -6.27591e-013 6.53229e-013 82.3658 -9.61881 59.6051 -18.7548 -11.5156 35.7574 -0.178314 -11.9487 -1.70429 -9.4974e-009 5.37548e-009 -6.91575e-012 -1.63971e-008 9.31376e-009 -8.66608e-011 -9.4974e-009 5.37548e-009 -6.9259e-012 7.73091 5.47488 0.417314 -9.4974e-009 5.37547e-009 -6.91802e-012 2.90554 0.965183 0.102902 -9.4974e-009 5.37547e-009 -6.91591e-012 10.2786 0.731801 0.0259123 -9.49741e-009 5.37547e-009 -6.91086e-012 2.22167 -0.733487 -0.20892 2.43968e-013 -6.27599e-013 6.5295e-013 -62.7734 23.7401 -19.9942 20.0007 -13.0127 -38.6811 0.118531 9.77037 -1.38674 -7.69957e-009 7.96322e-009 -4.81613e-009 -1.33489e-008 1.38775e-008 -8.25767e-009 -7.69958e-009 7.96323e-009 -4.81611e-009 -7.73091 5.47488 -0.417314 -7.69957e-009 7.96322e-009 -4.81613e-009 -2.90554 0.965183 -0.102902 -7.69958e-009 7.96322e-009 -4.81613e-009 -10.2786 0.731801 -0.0259123 -7.69956e-009 7.96322e-009 -4.81614e-009 -2.22167 -0.733487 0.20892 -2.03217e-016 0 -3.88251e-019 8.03241 -14.7929 -0.515316 -0.0585462 19.9305 0.332856 -2.97362 -4.45481 -17.6868 2.03217e-016 0 3.88251e-019 12.1656 -34.6494 -4.29733 0.500735 47.0201 -0.915009 0.0115788 -0.198187 -3.33156 
6.24627 84.7634 -2.4592 3.9369 11.4558 -72.8182 24.0499 -0.0336428 8.09821 3.63722 -5.44878 2.10672 -7.02596 -1.13956 -6.9575 1.47443 -10.6401 -11.665 -0 0 0 -0 0 0 1.11837e-013 -6.99262e-013 5.65521e-013 81.6955 -9.32613 59.3719 -18.4627 -11.1884 35.0824 -0.192127 -12.3984 -1.77044 -8.2146e-009 3.95986e-009 1.29724e-009 -1.41946e-008 6.858e-009 2.18112e-009 -8.21459e-009 3.95986e-009 1.29723e-009 7.73091 5.47488 0.417314 -8.21459e-009 3.95985e-009 1.29724e-009 2.90554 0.965183 0.102902 -8.21459e-009 3.95985e-009 1.29723e-009 10.2786 0.731801 0.0259123 -8.2146e-009 3.95985e-009 1.29724e-009 2.22167 -0.733487 -0.20892 1.11632e-013 -6.99289e-013 5.65269e-013 -63.1383 23.9931 -19.1503 20.1876 -13.25 -39.1353 0.118161 9.75526 -1.38455 -4.8547e-009 4.68274e-009 -3.91315e-009 -8.42351e-009 8.17621e-009 -6.72078e-009 -4.85471e-009 4.68275e-009 -3.91314e-009 -7.73091 5.47488 -0.417314 -4.8547e-009 4.68274e-009 -3.91315e-009 -2.90554 0.965183 -0.102902 -4.8547e-009 4.68274e-009 -3.91316e-009 -10.2786 0.731801 -0.0259123 -4.8547e-009 4.68275e-009 -3.91316e-009 -2.22167 -0.733487 0.20892 -2.03217e-016 0 -3.88251e-019 8.23326 -14.2337 -0.47719 -0.0586361 19.7363 0.337584 -3.0466 -4.64422 -17.7431 2.03217e-016 0 3.88251e-019 12.284 -35.0469 -4.2943 0.466245 45.7639 -0.870436 0.0611631 -0.590877 -2.62338 
5.4441 84.779 -2.39853 3.99739 11.536 -72.6424 23.8161 -0.0503491 8.38941 3.45044 -5.39792 2.18443 -7.16248 -1.10572 -7.11706 1.79368 -10.8728 -11.9076 -0 0 0 -0 0 0 -2.22946e-014 -7.12912e-013 4.52764e-013 80.9747 -8.98386 59.0439 -18.2255 -10.931 34.5297 -0.205599 -12.8169 -1.83221 -6.48185e-009 2.32295e-009 2.58311e-009 -1.12151e-008 4.01884e-009 4.42055e-009 -6.48185e-009 2.32295e-009 2.5831e-009 7.73091 5.47488 0.417314 -6.48185e-009 2.32295e-009 2.58311e-009 2.90554 0.965183 0.102902 -6.48185e-009 2.32295e-009 2.5831e-009 10.2786 0.731801 0.0259123 -6.48186e-009 2.32295e-009 2.58311e-009 2.22167 -0.733487 -0.20892 -2.24895e-014 -7.12959e-013 4.52541e-013 -63.5421 24.2094 -18.2651 20.3634 -13.4763 -39.5672 0.117962 9.74714 -1.38338 -1.71198e-009 1.05341e-009 -2.81496e-009 -2.98157e-009 1.86719e-009 -4.84893e-009 -1.71198e-009 1.05341e-009 -2.81495e-009 -7.73091 5.47488 -0.417314 -1.71197e-009 1.05341e-009 -2.81496e-009 -2.90554 0.965183 -0.102902 -1.71198e-009 1.05341e-009 -2.81497e-009 -10.2786 0.731801 -0.0259123 -1.71197e-009 1.05342e-009 -2.81497e-009 -2.22167 -0.733487 0.20892 -2.03217e-016 0 -3.88251e-019 8.41265 -13.6916 -0.443041 -0.0592999 19.569 0.341217 -3.11798 -4.82236 -17.798 2.03217e-016 0 3.88251e-019 12.3792 -35.4046 -4.29934 0.432279 44.4435 -0.825046 0.115077 -0.934613 -1.9742 
4.64097 84.7899 -2.32828 4.05908 11.6017 -72.4689 23.5558 -0.0669892 8.65852 3.27139 -5.33899 2.25643 -7.2914 -1.06876 -7.26307 2.10495 -11.1084 -12.126 -0 0 0 -0 0 0 -1.1439e-013 -7.33886e-013 3.91308e-013 80.2195 -8.59245 58.6241 -18.0323 -10.7214 34.0927 -0.217668 -13.1729 -1.88499 -5.05443e-009 1.09324e-009 3.42886e-009 -8.75825e-009 1.88579e-009 5.89613e-009 -5.05442e-009 1.09324e-009 3.42885e-009 7.73091 5.47488 0.417314 -5.05443e-009 1.09324e-009 3.42886e-009 2.90554 0.965183 0.102902 -5.05443e-009 1.09324e-009 3.42886e-009 10.2786 0.731801 0.0259123 -5.05444e-009 1.09324e-009 3.42886e-009 2.22167 -0.733487 -0.20892 -1.14567e-013 -7.33941e-013 3.91109e-013 -63.9854 24.3861 -17.349 20.5218 -13.6824 -39.9622 0.118104 9.753 -1.38422 5.83549e-010 -1.59956e-009 -1.93587e-009 9.9416e-010 -2.74622e-009 -3.34841e-009 5.83548e-010 -1.59956e-009 -1.93585e-009 -7.73091 5.47488 -0.417314 5.83552e-010 -1.59956e-009 -1.93587e-009 -2.90554 0.965183 -0.102902 5.83549e-010 -1.59956e-009 -1.93587e-009 -10.2786 0.731801 -0.0259123 5.83552e-010 -1.59955e-009 -1.93587e-009 -2.22167 -0.733487 0.20892 -2.03217e-016 0 -3.88251e-019 8.57252 -13.1726 -0.415701 -0.0605807 19.447 0.343508 -3.18869 -4.99023 -17.8575 2.03217e-016 0 3.88251e-019 12.4524 -35.7267 -4.3169 0.399772 43.1006 -0.779115 0.168929 -1.21074 -1.39859 
3.83544 84.7954 -2.24901 4.12363 11.6511 -72.2976 23.266 -0.0850787 8.90496 3.09942 -5.27105 2.32245 -7.41233 -1.02841 -7.39501 2.40793 -11.3472 -12.3193 -0 0 0 -0 0 0 -1.50739e-013 -7.9764e-013 4.22208e-013 79.4225 -8.13442 58.1109 -17.8897 -10.5659 33.781 -0.228362 -13.4804 -1.9307 -4.02399e-009 4.10098e-010 3.67048e-009 -6.98027e-009 7.00277e-010 6.32347e-009 -4.02398e-009 4.10096e-010 3.67047e-009 7.73091 5.47488 0.417314 -4.02399e-009 4.10095e-010 3.67048e-009 2.90554 0.965183 0.102902 -4.02399e-009 4.10095e-010 3.67048e-009 10.2786 0.731801 0.0259123 -4.024e-009 4.10096e-010 3.67048e-009 2.22167 -0.733487 -0.20892 -1.50883e-013 -7.97683e-013 4.22026e-013 -64.4671 24.5231 -16.3977 20.6663 -13.8731 -40.3241 0.118518 9.7696 -1.38663 1.72283e-009 -2.96685e-009 -1.36135e-009 2.96885e-009 -5.1266e-009 -2.36422e-009 1.72283e-009 -2.96686e-009 -1.36134e-009 -7.73091 5.47488 -0.417314 1.72283e-009 -2.96685e-009 -1.36135e-009 -2.90554 0.965183 -0.102902 1.72283e-009 -2.96685e-009 -1.36135e-009 -10.2786 0.731801 -0.0259123 1.72284e-009 -2.96685e-009 -1.36136e-009 -2.22167 -0.733487 0.20892 -2.03217e-016 0 -3.88251e-019 8.71187 -12.6732 -0.393841 -0.062502 19.3638 0.343982 -3.25917 -5.14987 -17.9203 2.03217e-016 0 3.88251e-019 12.5022 -36.01 -4.34718 0.368738 41.7183 -0.732277 0.219374 -1.40676 -0.897008 
3.02903 84.7964 -2.16039 4.19292 11.6839 -72.1305 22.9465 -0.105136 9.13003 2.93389 -5.1939 2.38274 -7.52516 -0.984868 -7.51277 2.70338 -11.59 -12.4871 -0 0 0 -0 0 0 -1.55391e-013 -8.63312e-013 4.97847e-013 78.5858 -7.60435 57.5077 -17.8055 -10.4764 33.5927 -0.237732 -13.7487 -1.97063 -3.02432e-009 -5.22656e-011 3.55012e-009 -5.25147e-009 -1.02391e-010 6.12426e-009 -3.02431e-009 -5.22672e-011 3.55011e-009 7.73091 5.47488 0.417314 -3.02432e-009 -5.22687e-011 3.55012e-009 2.90554 0.965183 0.102902 -3.02431e-009 -5.22689e-011 3.55012e-009 10.2786 0.731801 0.0259123 -3.02432e-009 -5.22674e-011 3.55012e-009 2.22167 -0.733487 -0.20892 -1.5549e-013 -8.63333e-013 4.97679e-013 -64.9842 24.6195 -15.4091 20.7996 -14.0519 -40.6579 0.119155 9.7949 -1.39029 2.3178e-009 -3.74055e-009 -8.78789e-010 4.00199e-009 -6.47677e-009 -1.53411e-009 2.31779e-009 -3.74056e-009 -8.78771e-010 -7.73091 5.47488 -0.417314 2.3178e-009 -3.74055e-009 -8.78787e-010 -2.90554 0.965183 -0.102902 2.31779e-009 -3.74055e-009 -8.78789e-010 -10.2786 0.731801 -0.0259123 2.31781e-009 -3.74055e-009 -8.78797e-010 -2.22167 -0.733487 0.20892 -2.03217e-016 0 -3.88251e-019 8.83045 -12.1919 -0.37656 -0.0650578 19.3133 0.342911 -3.32884 -5.30015 -17.984 2.03217e-016 0 3.88251e-019 12.5283 -36.2537 -4.38822 0.339196 40.2837 -0.684777 0.264568 -1.53492 -0.462805 
